# xmcd
#
# Track frame offsets:
#	150
#	11350
#	26177
#	39971
#	52072
#	62771
#	67496
#	79043
#	92984
#	110072
#
# Disc length: 1668 seconds
#
# Revision: 1
# Processed by: cddbd v1.5.1PL0 Copyright (c) Steve Scherf et al.
# Submitted via: audiograbber 1.83.01
#
DISCID=8b06820a
DTITLE=Dottie West - New Horizons
DYEAR=1983
DGENRE=
TTITLE0=Overnight Sensation
TTITLE1=Tulsa Ballroom
TTITLE2=The Night Love Let You Down
TTITLE3=The Woman In Love With You
TTITLE4=I Make A Great Cup Of Coffee
TTITLE5=Who's That Look In Your Eyes
TTITLE6=He's All I Need
TTITLE7=If I Ever Cross Your Mind
TTITLE8=Hate The Lies - Love The Liar
TTITLE9=Read My Lips
EXTD=
EXTT0=
EXTT1=
EXTT2=
EXTT3=
EXTT4=
EXTT5=
EXTT6=
EXTT7=
EXTT8=
EXTT9=
PLAYORDER=
